HIERARCHY
ROOT Hips
{
  OFFSET 172.444 101.5 -182.9
  CHANNELS 6 Xposition Yposition Zposition Zrotation Xrotation Yrotation
  JOINT ToSpine
  {
    OFFSET -0.0105055 1.38907 -7.13956
    CHANNELS 3 Zrotation Xrotation Yrotation
    JOINT Spine
    {
      OFFSET 0.0105055 10 1
      CHANNELS 3 Zrotation Xrotation Yrotation
      JOINT Spine1
      {
        OFFSET 0 12 1.60637
        CHANNELS 3 Zrotation Xrotation Yrotation
        JOINT Neck
        {
          OFFSET 0 27 2.26658
          CHANNELS 3 Zrotation Xrotation Yrotation
          JOINT Head
          {
            OFFSET 0 9 2.12705
            CHANNELS 3 Zrotation Xrotation Yrotation
            End Site
            {
              OFFSET 0 11 2
            }
          }
        }
        JOINT LeftShoulder
        {
          OFFSET 8 19.6109 2.86452
          CHANNELS 3 Zrotation Xrotation Yrotation
          JOINT LeftArm
          {
            OFFSET 12 1 0.681055
            CHANNELS 3 Zrotation Xrotation Yrotation
            JOINT LeftForeArm
            {
              OFFSET 19 0 -1.52608
              CHANNELS 3 Zrotation Xrotation Yrotation
              JOINT LeftHand
              {
                OFFSET 23 0 0
                CHANNELS 3 Zrotation Xrotation Yrotation
                End Site
                {
                  OFFSET 10 0 0
                }
              }
            }
          }
        }
        JOINT RightShoulder
        {
          OFFSET -8 19.6109 2.86452
          CHANNELS 3 Zrotation Xrotation Yrotation
          JOINT RightArm
          {
            OFFSET -12 1 0.681055
            CHANNELS 3 Zrotation Xrotation Yrotation
            JOINT RightForeArm
            {
              OFFSET -19 0 -1.52608
              CHANNELS 3 Zrotation Xrotation Yrotation
              JOINT RightHand
              {
                OFFSET -23 0 0
                CHANNELS 3 Zrotation Xrotation Yrotation
                End Site
                {
                  OFFSET -10 0 0
                }
              }
            }
          }
        }
      }
    }
  }
  JOINT LeftUpLeg
  {
    OFFSET 9 -7.17245 0
    CHANNELS 3 Zrotation Xrotation Yrotation
    JOINT LeftLeg
    {
      OFFSET 0 -44.1113 0
      CHANNELS 3 Zrotation Xrotation Yrotation
      JOINT LeftFoot
      {
        OFFSET 0 -36.1829 0
        CHANNELS 3 Zrotation Xrotation Yrotation
        JOINT LeftToeBase
        {
          OFFSET 0 -4.84184 13
          CHANNELS 3 Zrotation Xrotation Yrotation
          End Site
          {
            OFFSET 0 1 6
          }
        }
      }
    }
  }
  JOINT RightUpLeg
  {
    OFFSET -9 -7.17245 0
    CHANNELS 3 Zrotation Xrotation Yrotation
    JOINT RightLeg
    {
      OFFSET 0 -44.0551 0
      CHANNELS 3 Zrotation Xrotation Yrotation
      JOINT RightFoot
      {
        OFFSET 0 -36.1469 0
        CHANNELS 3 Zrotation Xrotation Yrotation
        JOINT RightToeBase
        {
          OFFSET 0 -4.92256 13
          CHANNELS 3 Zrotation Xrotation Yrotation
          End Site
          {
            OFFSET 0 1 6
          }
        }
      }
    }
  }
}
MOTION
Frames:	10
Frame Time:	0.0333333
-0.473587 91.5482 -29.0304 -3.98015 -2.84186 29.4596 0 0 0 3.15318 -0.628053 -1.29915 3.89908 7.22224 -2.35791 11.9424 33.1641 -11.5123 -3.06913 3.9412 -4.42249 -24.0622 2.77006 -5.61911 -31.2703 21.6906 -13.081 -3.7905 -6.90709 -28.8512 -11.231 0.273766 -2.78378 22.1382 3.9836 10.4194 57.7972 -1.29524 -20.425 3.33056 -12.3967 9.82943 4.09412 0.197437 5.51949 20.0556 -20.8928 2.03595 1.47467e-006 48.8615 -35.3853 12.3027 -29.9478 3.30227 0.543632 -0.733786 -2.12955 -26.9815 -6.59571 -15.2871 -4.20931 18.7694 12.7748 -19.1196 4.9567 0.835294 3.53944 -12.8681 -8.70085 
-3.68311 90.2535 -26.7176 -3.22189 -2.63732 30.3554 0 0 0 2.42686 0.18605 -1.98648 4.1741 6.65956 -3.06119 11.6118 33.1749 -11.8892 -1.86044 4.08079 -5.3289 -24.3898 2.73638 -5.41701 -31.581 20.8776 -12.0171 -3.70316 -6.92601 -28.2236 -11.0715 0.268461 -2.76942 22.5915 3.77934 9.51744 58.0322 -0.0179286 -21.4541 3.52013 -12.2586 9.08305 4.36329 0.236416 6.19987 22.4401 -20.9797 2.0079 -1.13827e-006 49.3121 -37.3065 9.85174 -32.0599 2.83693 0.240128 0.342463 -1.08392 -29.1132 -7.71542 -15.684 -3.08174 20.9205 12.7546 -17.8444 6.69369 1.05203 3.54059 -12.8302 -9.55462 
-7.2971 89.1357 -24.0936 -3.27797 -2.39913 30.4364 0 0 0 1.88833 0.243272 -2.19802 4.95991 6.50883 -3.42329 11.7547 33.1075 -12.1174 -1.67137 3.8055 -5.55022 -24.077 2.75775 -5.57451 -32.7419 19.9907 -10.2794 -3.93015 -7.76894 -26.9411 -9.87288 0.178088 -2.06168 21.9475 3.80153 9.87213 59.2219 -1.17202 -22.7151 3.17026 -11.0905 8.94796 4.56484 0.238189 5.97071 26.1395 -20.371 2.95135 -1.09428e-006 48.0312 -38.1018 7.94505 -32.6391 2.32965 0.496828 -1.35325 -1.79511 -28.9882 -9.49501 -14.6111 -1.66561 23.8048 10.3546 -18.1027 7.79141 1.24306 3.93441 -14.9729 -9.93997 
-11.3901 88.2208 -21.2535 -1.69653 -2.57143 29.6755 0 0 0 0.491266 1.63325 -2.29047 4.83755 6.26851 -3.43192 10.7957 33.6054 -11.252 -1.3033 3.79896 -5.25271 -24.5216 2.66622 -5.15366 -33.5651 17.385 -6.49002 -3.87033 -7.48501 -27.4447 -10.0513 0.189665 -2.15652 21.8459 3.74826 9.73056 59.9444 -1.61181 -23.0832 3.06506 -10.9933 8.38833 4.23834 0.211701 5.7164 28.0759 -17.2658 2.80613 -6.58313e-007 44.7873 -37.0614 6.72006 -30.7755 1.85143 0.512212 -6.16695 -0.573651 -29.4286 -10.8915 -11.9144 -0.00172009 29.5087 7.58229 -16.6147 6.48971 0.948588 5.02146 -22.874 -14.5122 
-15.9536 87.4586 -18.1713 -0.314971 -2.60734 28.6911 0 0 0 0.184128 2.40143 -2.33668 2.65439 6.20045 -3.10761 9.45283 34.3415 -9.77278 -0.919443 3.9724 -4.52205 -24.5335 2.58103 -4.87486 -34.2325 15.017 -2.50563 -3.62677 -7.13881 -27.0231 -10.5918 0.2211 -2.38489 20.5673 3.06864 7.82498 61.5759 0.470957 -21.6268 3.32007 -10.1916 6.41345 3.9692 0.208063 5.99892 30.213 -15.2744 2.86301 -7.46946e-007 42.8098 -37.5248 10.5016 -23.1842 2.15994 0.560776 -16.0769 5.16648 -29.4882 -12.0023 -14.6995 3.29066e-008 35.9536 8.64514 -14.3927 -0.438666 -0.0553882 5.32838 -25.8838 -15.731 
-20.3229 87.5337 -15.4211 0.0053661 -3.03744 27.4035 0 0 0 1.5215 2.94232 -2.239 0.834649 6.50334 -2.61661 8.1505 35.2638 -8.33362 -0.627889 3.4046 -3.80097 -24.2613 2.47563 -4.602 -35.5236 12.7987 0.497616 -3.31904 -7.07291 -25.2827 -10.8172 0.246801 -2.60628 22.2139 3.95056 10.2707 60.3388 -0.636722 -22.7089 3.24724 -11.4728 6.97963 4.49416 0.212422 5.40952 32.7411 -15.2477 2.05716 -8.27664e-007 42.9824 -35.8535 6.23349 -13.1808 0.720884 1.59707 -24.8038 6.34408 -28.7755 -13.7034 -18.1518 5.44336e-007 41.6512 13.9421 -14.2599 -4.40491 -0.551266 5.71496 -27.4486 -14.3986 
-24.8937 88.3542 -12.9236 0.467 -4.4648 25.7358 0 0 0 2.656 5.34287 -1.74813 -0.532087 6.93239 -1.81066 7.10436 34.7493 -6.8034 -0.0242912 3.21428 -2.98197 -24.6856 2.40899 -4.28133 -36.3638 10.7075 3.022 -3.71056 -8.34774 -24.5843 -11.1545 0.242014 -2.47801 21.2524 4.11085 11.2884 60.8283 -0.25221 -21.1302 3.16805 -10.5314 7.01729 3.77659 0.184211 5.583 34.0022 -15.3493 -2.40928 1.82244e-006 43.7772 -33.0296 2.52383 -1.34664 0.0296653 1.93428 -27.3131 4.275 -26.2679 -14.2959 -19.7665 -8.31896e-007 45.7872 16.0356 -15.8603 -6.40522 -0.893146 6.19524 -28.6537 -12.289 
-29.1407 89.7233 -10.5857 1.02401 -5.47125 24.2742 0 0 0 4.2882 6.86455 -1.45024 -3.36357 7.34783 -0.823641 7.32196 35.968 -6.44713 0.365699 2.12271 -2.5124 -24.5774 2.40974 -4.30982 -37.6301 9.58908 6.18193 -3.7042 -8.3703 -24.5334 -11.9043 0.276374 -2.65035 21.6496 4.35615 11.955 59.74 1.4957 -19.791 3.65953 -11.7726 7.10777 2.77224 0.139464 5.75881 32.0391 -17.5867 -10.1758 -2.15791e-009 48.1499 -28.9856 3.68556 5.89516 -0.189836 0.66839 -9.57242 -0.220268 -23.0331 -13.5797 -18.8804 4.72996e-007 46.3699 16.0009 -12.4876 -9.37656 -1.02814 6.26681 -26.2836 -8.2272 
-32.9419 90.8111 -8.62557 1.16326 -5.08066 22.8494 0 0 0 4.57238 7.60962 -1.03788 -4.16664 6.85785 -0.201991 6.61638 36.6658 -5.54874 0.318995 2.82144 -1.93533 -26.0988 2.42685 -4.01014 -38.1484 9.05639 10.0119 -3.57468 -7.32434 -26.1059 -11.4076 0.333656 -3.33961 21.2397 4.32332 12.0512 57.9648 3.11392 -18.1457 3.89228 -11.6355 7.94005 2.57851 0.130595 5.79786 28.6521 -22.0008 -15.1065 -1.49504e-006 54.1357 -29.4935 8.71298 11.3291 -0.865882 0.806132 -7.03288 -1.90912 -19.5165 -13.6776 -16.1758 2.33147e-007 45.6974 13.6512 -9.52504 -14.1639 -1.18605 5.49446 -21.5303 -5.23306 
-35.8182 91.8411 -6.98151 0.915554 -4.41282 21.3676 0 0 0 5.5811 7.62319 -0.437678 -4.4765 6.5993 0.626533 6.80958 37.2424 -5.57455 0.105855 2.66902 -1.76177 -26.7413 2.44562 -3.92567 -39.7497 10.3374 11.3403 -3.28011 -7.58789 -24.2662 -12.0301 0.280385 -2.66048 20.6007 4.18435 11.8864 55.6629 2.85952 -16.6531 3.53827 -10.3733 9.89106 2.56069 0.12681 5.66922 25.4751 -26.2693 -14.8603 -2.06234e-006 59.6625 -29.7891 11.532 5.9938 -0.605782 0.137107 -3.50984 0.43667 -16.4682 -13.3346 -14.7643 1.37779e-007 43.3211 13.1175 -10.1228 -15.3225 -1.36518 5.4163 -21.0086 -4.58697 
